<?xml version="1.0" standalone="no"?><!DOCTYPE svg PUBLIC "-//W3C//DTD SVG 1.1//EN" "http://www.w3.org/Graphics/SVG/1.1/DTD/svg11.dtd"><svg t="1558789293028" class="icon" style="" viewBox="0 0 1024 1024" version="1.1" xmlns="http://www.w3.org/2000/svg" p-id="10097" xmlns:xlink="http://www.w3.org/1999/xlink" width="48" height="48"><defs><style type="text/css"></style></defs><path d="M442.056348 712.748522l-107.965218 108.009739-19.099826 19.099826c-6.322087 6.366609-12.688696 6.366609-12.688695 6.366609-6.366609 0-12.733217 0-25.421913 6.322087l-133.476174 12.733217c-38.110609 6.366609-63.532522-25.421913-69.899131-57.210435v-12.688695l12.733218-133.476174c0-12.733217 0-19.055304 6.366608-25.421913 0-6.366609 6.366609-12.733217 6.366609-12.733218l19.055304-19.010782 368.550957-368.64c19.055304-19.055304 31.788522-25.377391 38.110609-31.788522 12.733217-6.366609 25.421913-6.366609 31.788521 0 12.688696 6.366609 19.055304 6.366609 38.110609 31.788522l108.054261 108.05426c19.055304 19.055304 25.421913 31.744 31.744 38.110609 6.366609 12.733217 6.366609 25.421913 0 31.788522-6.366609 12.733217-6.366609 19.055304-31.744 38.110609L575.532522 579.227826a30.72 30.72 0 0 1-44.477218 0 30.72 30.72 0 0 1 0-44.521739l120.742957-120.653913 12.733217-12.777739-12.733217-12.688696-108.009739-108.054261-12.777739-12.733217-12.644174 12.733217-368.64 368.64-6.322087 6.322087v12.733218l-12.688696 133.476174 133.431652-12.77774h12.688696s6.366609 0 6.366609-6.322087l108.05426-108.05426a30.72 30.72 0 0 1 44.477218 0c19.055304 6.366609 19.055304 25.421913 6.366609 38.15513zM848.806957 39.134609l44.477217 44.521739c50.843826 50.754783 50.843826 127.065043 0 177.908869l-44.477217 44.477218a61.44 61.44 0 0 1-88.998957 0l-133.431652-133.476174a61.44 61.44 0 0 1 0-88.954435l44.521739-44.521739c44.477217-50.799304 127.065043-50.799304 177.90887 0z m-44.52174 44.521739c-25.377391-25.466435-63.532522-25.466435-88.909913 0l-50.843826 44.432695 133.431652 133.476174 44.52174-44.521739c25.377391-25.377391 25.377391-63.532522 0-88.954435l-38.155131-44.477217zM925.028174 1017.766957H98.927304c-19.055304 0-31.788522-12.688696-31.788521-31.788522 0-19.010783 12.733217-31.744 31.788521-31.744h826.189913c19.010783 0 31.744 12.733217 31.744 31.744 0 19.099826-12.733217 31.788522-31.744 31.788522h-0.089043z" p-id="10098" fill="#ffffff"></path></svg>