<?xml version="1.0" standalone="no"?><!DOCTYPE svg PUBLIC "-//W3C//DTD SVG 1.1//EN" "http://www.w3.org/Graphics/SVG/1.1/DTD/svg11.dtd"><svg t="1558680380865" class="icon" style="" viewBox="0 0 1024 1024" version="1.1" xmlns="http://www.w3.org/2000/svg" p-id="8035" xmlns:xlink="http://www.w3.org/1999/xlink" width="48" height="48"><defs><style type="text/css"></style></defs><path d="M53.895276 161.576421v215.794526c0 29.965474 23.929263 53.786947 53.786947 53.786948h215.794526A53.517474 53.517474 0 0 0 377.263697 377.370947V161.576421A53.517474 53.517474 0 0 0 323.476749 107.789474H107.682223A53.517474 53.517474 0 0 0 53.895276 161.576421z m-53.894737 0C0.000539 102.130526 47.805171 53.894737 107.682223 53.894737h215.794526C382.922644 53.894737 431.158434 101.699368 431.158434 161.576421v215.794526A107.412211 107.412211 0 0 1 323.476749 485.052632H107.682223A107.412211 107.412211 0 0 1 0.000539 377.370947V161.576421z m525.797053 184.050526a107.412211 107.412211 0 0 1 0-152.306526L678.373592 40.744421c42.037895-42.037895 109.945263-42.361263 152.306526 0l152.576 152.576c42.037895 42.037895 42.361263 109.945263 0 152.306526l-152.576 152.576c-42.037895 42.037895-109.945263 42.361263-152.306526 0L525.797592 345.626947z m190.679579 114.472421a53.517474 53.517474 0 0 0 76.099368 0l152.522105-152.576a53.517474 53.517474 0 0 0 0-76.099368l-152.522105-152.522105a53.517474 53.517474 0 0 0-76.099368 0l-152.522106 152.522105a53.517474 53.517474 0 0 0 0 76.099368l152.522106 152.522106zM538.947907 700.523789c0-59.445895 47.804632-107.681684 107.681685-107.681684h215.794526c59.445895 0 107.681684 47.804632 107.681684 107.681684v215.794527A107.412211 107.412211 0 0 1 862.424118 1024h-215.794526A107.412211 107.412211 0 0 1 538.947907 916.318316v-215.794527z m53.894737 0v215.794527c0 29.965474 23.929263 53.786947 53.786948 53.786947h215.794526a53.517474 53.517474 0 0 0 53.786947-53.786947v-215.794527a53.517474 53.517474 0 0 0-53.786947-53.786947h-215.794526a53.517474 53.517474 0 0 0-53.786948 53.786947z m-592.842105 0C0.000539 641.077895 47.805171 592.842105 107.682223 592.842105h215.794526C382.922644 592.842105 431.158434 640.646737 431.158434 700.523789v215.794527A107.412211 107.412211 0 0 1 323.476749 1024H107.682223A107.412211 107.412211 0 0 1 0.000539 916.318316v-215.794527z m53.894737 0v215.794527c0 29.965474 23.929263 53.786947 53.786947 53.786947h215.794526A53.517474 53.517474 0 0 0 377.263697 916.318316v-215.794527A53.517474 53.517474 0 0 0 323.476749 646.736842H107.682223a53.517474 53.517474 0 0 0-53.786947 53.786947z" p-id="8036" fill="#1296db"></path></svg>