<?xml version="1.0" standalone="no"?><!DOCTYPE svg PUBLIC "-//W3C//DTD SVG 1.1//EN" "http://www.w3.org/Graphics/SVG/1.1/DTD/svg11.dtd"><svg t="1558788704395" class="icon" style="" viewBox="0 0 1024 1024" version="1.1" xmlns="http://www.w3.org/2000/svg" p-id="2003" xmlns:xlink="http://www.w3.org/1999/xlink" width="48" height="48"><defs><style type="text/css"></style></defs><path d="M703.808 679.257c5.115 2.557 11.253 4.092 16.88 3.58 24.04 0 27.62-16.367 29.154-29.155v-3.58c0.512-10.23-3.58-19.948-10.23-27.109l-3.58-3.58c-3.58-6.65-10.23-10.23-16.88-13.3-24.04-16.878-51.148-30.688-78.257-43.987 84.907-56.775 136.056-151.912 136.056-254.21C777.463 139.125 637.826 0 460.851 0 293.594 3.58 150.378 142.194 150.378 311.497c0 102.297 51.148 197.434 136.056 254.21C143.217 626.572 40.919 755.468 17.39 907.891c0 3.58-3.58 10.23-3.58 13.81v3.58c2.557 15.857 5.626 29.156 29.154 29.156 24.04-0.512 43.988-19.948 44.5-43.988 20.46-169.303 178.509-298.198 352.415-308.428h40.92c68.027 3.58 147.82 27.109 198.968 60.867 7.161 6.65 15.345 12.276 24.04 16.368zM461.363 557.01c-137.08 0.511-248.584-110.482-249.095-248.072S322.749 60.356 459.828 59.844s248.584 110.482 249.095 248.072v0.512c0 136.567-110.993 247.56-247.56 248.583zM961.598 796.388h-88.487v-87.976c0-24.552-19.948-44.5-44.5-44.5-24.551 0-44.5 19.948-44.5 44.5v91.556h-92.067c-23.529-1.023-43.477 17.902-44.5 41.43v2.558c0.512 24.04 19.949 43.477 44.5 43.988h92.068v91.557c0 24.55 19.948 44.499 44.5 44.499 24.55 0 44.499-19.948 44.499-44.5v-91.556h88.487c24.04-0.511 43.988-19.948 44.5-43.988-0.512-27.62-20.971-47.568-44.5-47.568z" p-id="2004" fill="#ffffff"></path></svg>