<?xml version="1.0" standalone="no"?><!DOCTYPE svg PUBLIC "-//W3C//DTD SVG 1.1//EN" "http://www.w3.org/Graphics/SVG/1.1/DTD/svg11.dtd"><svg t="1557063167692" class="icon" style="" viewBox="0 0 1024 1024" version="1.1" xmlns="http://www.w3.org/2000/svg" p-id="3288" xmlns:xlink="http://www.w3.org/1999/xlink" width="200" height="200"><defs><style type="text/css"></style></defs><path d="M128.759549 245.034251l383.063419 383.064442 388.096039-388.097062 0.033769 0.07060799c13.137205-12.709463 31.024597-20.529569 50.731428-20.52956899 40.376593 0 73.11215799 32.736589 73.112158 73.115228 0 19.705807-7.819083 37.591153-20.528546 50.730405l0.035816 0.034792L564.622498 782.109346l-0.035816-0.035816c-13.28149101 13.779841-31.91589701 22.3838-52.585659 22.3838-0.07163101 0-0.106424 0-0.178055 0-0.072655 0-0.10847 0-0.144286 0-20.66976201 0-39.341007-8.603959-52.622498-22.3838l-0.034792 0.035816L20.337187 343.426165l0.179079-0.180102c-12.56619999-13.139252-20.313651-30.950919-20.313651-50.587142 0-40.378639 32.736589-73.115228 73.114205-73.115228C95.485725 219.544717 115.33479499 229.432924 128.759549 245.034251z" p-id="3289"></path></svg>