<?xml version="1.0" standalone="no"?><!DOCTYPE svg PUBLIC "-//W3C//DTD SVG 1.1//EN" "http://www.w3.org/Graphics/SVG/1.1/DTD/svg11.dtd"><svg t="1558789034252" class="icon" style="" viewBox="0 0 1024 1024" version="1.1" xmlns="http://www.w3.org/2000/svg" p-id="4786" xmlns:xlink="http://www.w3.org/1999/xlink" width="48" height="48"><defs><style type="text/css"></style></defs><path d="M929.76 442.788L670.033 183.061c-9.988-9.988-26.168-9.988-36.155 0-9.988 9.988-9.988 26.168 0 36.155l259.728 259.728a56.578 56.578 0 0 1 7.352 9.057h-659.98c-14.132 0-25.568 11.867-25.568 26 0 14.132 11.436 26 25.568 26h664.83c-2.784 6.731-6.897 12.915-12.203 18.22L633.878 817.948c-9.988 9.988-9.988 26.167 0 36.155a25.486 25.486 0 0 0 18.078 7.491 25.486 25.486 0 0 0 18.078-7.491L929.76 594.375c20.25-20.225 31.411-47.141 31.411-75.781 0-28.639-11.161-55.556-31.411-75.806z" fill="#ffffff" p-id="4787"></path><path d="M417.733 726.073c-14.132 0-25.568 11.447-25.568 25.579C392.165 817.995 337.808 872 270.99 872h-36.679C166.37 872 113 819.471 113 752.454V275.546C113 208.529 166.37 156 234.311 156h36.679c66.817 0 121.175 53.717 121.175 119.835 0 14.133 11.436 25.477 25.568 25.477 14.133 0 25.568-11.663 25.568-25.795C443.302 181.183 365.998 104 270.99 104h-36.679C139.304 104 62 181.463 62 275.546v476.908C62 846.537 139.304 924 234.311 924h36.679c95.007 0 172.311-77.378 172.311-171.911 0.001-14.132-11.435-26.016-25.568-26.016z" fill="#ffffff" p-id="4788"></path></svg>