<?xml version="1.0" standalone="no"?><!DOCTYPE svg PUBLIC "-//W3C//DTD SVG 1.1//EN" "http://www.w3.org/Graphics/SVG/1.1/DTD/svg11.dtd"><svg t="1558789398278" class="icon" style="" viewBox="0 0 1059 1024" version="1.1" xmlns="http://www.w3.org/2000/svg" p-id="10866" xmlns:xlink="http://www.w3.org/1999/xlink" width="49.640625" height="48"><defs><style type="text/css"></style></defs><path d="M826.756414 882.970483c0 35.275034-28.954483 63.947034-64.547311 63.947034H297.101241a64.335448 64.335448 0 0 1-64.54731-63.911724V204.093793h594.202483v678.841379zM361.648552 89.370483c0-7.415172 5.790897-13.135448 13.241379-13.135449h310.377931c7.415172 0 13.206069 5.755586 13.206069 13.135449v38.523586h-336.825379V89.370483z m658.749793 38.523586h-244.947862V89.370483C775.415172 40.183172 734.878897 0 685.232552 0h-310.342621C325.243586 0 284.672 40.183172 284.672 89.335172v38.558897h-245.76C17.37269 127.894069 0 145.125517 0 166.417655c0 21.327448 17.37269 38.558897 38.912 38.558897h115.817931v677.993931C154.765241 960.865103 218.500414 1024 297.136552 1024h465.107862c78.600828 0 142.336-63.134897 142.336-141.029517V204.129103h115.853241c21.53931 0 38.912-17.196138 38.912-38.488275 0-21.362759-17.37269-37.746759-38.912-37.746759zM529.655172 831.346759c21.53931 0 38.912-17.231448 38.912-38.558897V382.870069c0-21.327448-17.408-38.523586-38.912-38.523586-21.53931 0-38.912 17.196138-38.912 38.523586v409.953103c0 21.292138 17.408 38.488276 38.912 38.488276z m-181.248 0c21.53931 0 38.912-17.231448 38.912-38.558897V382.870069c0-21.327448-17.37269-38.523586-38.912-38.523586-21.53931 0-38.87669 17.196138-38.876689 38.523586v409.953103c0.812138 21.292138 18.184828 38.488276 38.876689 38.488276z m362.496 0c21.53931 0 38.87669-17.231448 38.87669-38.558897V382.870069c0-21.327448-17.37269-38.523586-38.87669-38.523586-21.53931 0-38.912 17.196138-38.912 38.523586v409.953103c0 21.292138 17.37269 38.488276 38.912 38.488276z" fill="#ffffff" p-id="10867"></path></svg>