<?xml version="1.0" standalone="no"?><!DOCTYPE svg PUBLIC "-//W3C//DTD SVG 1.1//EN" "http://www.w3.org/Graphics/SVG/1.1/DTD/svg11.dtd"><svg t="1558757657362" class="icon" style="" viewBox="0 0 1228 1024" version="1.1" xmlns="http://www.w3.org/2000/svg" p-id="7152" xmlns:xlink="http://www.w3.org/1999/xlink" width="57.5625" height="48"><defs><style type="text/css"></style></defs><path d="M1131.6736 890.88c20.48 0 35.84-15.36 35.84-35.84-20.48-204.8-158.72-363.52-327.68-363.52s-312.32 158.72-327.68 363.52c0 20.48 15.36 35.84 35.84 35.84h583.68z" fill="#FFFFFF" p-id="7153"></path><path d="M1054.8736 788.48c15.36 0 25.6-10.24 25.6-25.6-15.36-148.48-117.76-266.24-240.64-266.24s-225.28 117.76-240.64 266.24c0 15.36 10.24 25.6 25.6 25.6h430.08z" fill="#FFCB57" p-id="7154"></path><path d="M645.2736 230.4c0 71.68 35.84 133.12 97.28 168.96s133.12 35.84 194.56 0 97.28-97.28 97.28-168.96-35.84-133.12-97.28-168.96-133.12-35.84-194.56 0-97.28 102.4-97.28 168.96z" fill="#FFFFFF" p-id="7155"></path><path d="M696.4736 286.72c0 51.2 25.6 97.28 71.68 122.88s97.28 25.6 143.36 0 66.56-71.68 66.56-122.88-25.6-97.28-71.68-122.88-97.28-25.6-143.36 0-66.56 71.68-66.56 122.88z" fill="#FFCB57" p-id="7156"></path><path d="M839.8336 435.2c-122.88 0-220.16-97.28-220.16-215.04s97.28-220.16 220.16-220.16 220.16 97.28 220.16 220.16-102.4 215.04-220.16 215.04z m0-384c-97.28 0-168.96 76.8-168.96 168.96s76.8 168.96 168.96 168.96 168.96-76.8 168.96-168.96-76.8-168.96-168.96-168.96z m296.96 880.64h-593.92c-15.36 0-30.72-5.12-46.08-20.48-10.24-10.24-15.36-25.6-15.36-40.96 20.48-220.16 174.08-389.12 353.28-389.12s332.8 168.96 353.28 389.12c0 15.36-5.12 30.72-15.36 40.96-5.12 10.24-20.48 20.48-35.84 20.48z m-296.96-399.36c-153.6 0-286.72 148.48-307.2 343.04v5.12l5.12 5.12h593.92c5.12 0 5.12 0 5.12-5.12v-5.12c-10.24-199.68-143.36-343.04-296.96-343.04z" fill="#472D22" p-id="7157"></path><path d="M1136.7936 931.84h-593.92c-15.36 0-30.72-5.12-46.08-20.48-10.24-10.24-15.36-25.6-15.36-40.96 20.48-220.16 174.08-389.12 353.28-389.12s332.8 168.96 353.28 389.12c0 15.36-5.12 30.72-15.36 40.96-5.12 10.24-20.48 20.48-35.84 20.48z m-296.96-399.36c-153.6 0-286.72 148.48-307.2 343.04v5.12l5.12 5.12h593.92c5.12 0 5.12 0 5.12-5.12v-5.12c-10.24-199.68-143.36-343.04-296.96-343.04z" fill="#472D22" p-id="7158"></path><path d="M665.6 890.88c20.48 0 35.84-15.36 35.84-35.84-20.48-204.8-158.72-363.52-327.68-363.52S61.44 650.24 46.08 855.04c0 20.48 15.36 35.84 35.84 35.84H665.6z" fill="#FFFFFF" p-id="7159"></path><path d="M588.8 788.48c15.36 0 25.6-10.24 25.6-25.6-15.36-148.48-117.76-266.24-240.64-266.24S148.48 614.4 133.12 762.88c0 15.36 10.24 25.6 25.6 25.6h430.08z" fill="#FFCB57" p-id="7160"></path><path d="M179.2 230.4c0 71.68 35.84 133.12 97.28 168.96s133.12 35.84 194.56 0 97.28-97.28 97.28-168.96-35.84-133.12-97.28-168.96-133.12-35.84-194.56 0-97.28 102.4-97.28 168.96z" fill="#FFFFFF" p-id="7161"></path><path d="M230.4 286.72c0 51.2 25.6 97.28 71.68 122.88s97.28 25.6 143.36 0S512 337.92 512 286.72s-25.6-97.28-71.68-122.88-97.28-25.6-143.36 0-66.56 71.68-66.56 122.88z" fill="#FFCB57" p-id="7162"></path><path d="M373.76 435.2C250.88 435.2 153.6 337.92 153.6 220.16S250.88 0 373.76 0s220.16 97.28 220.16 220.16-102.4 215.04-220.16 215.04z m0-384C276.48 51.2 204.8 128 204.8 220.16s76.8 168.96 168.96 168.96 168.96-76.8 168.96-168.96S465.92 51.2 373.76 51.2z m296.96 880.64H76.8c-15.36 0-30.72-5.12-46.08-20.48-10.24-10.24-15.36-25.6-15.36-40.96 20.48-220.16 174.08-389.12 353.28-389.12s332.8 168.96 353.28 389.12c0 15.36-5.12 30.72-15.36 40.96-5.12 10.24-20.48 20.48-35.84 20.48z m-296.96-399.36c-153.6 0-286.72 148.48-307.2 343.04v5.12l5.12 5.12H665.6c5.12 0 5.12 0 5.12-5.12v-5.12c-10.24-199.68-143.36-343.04-296.96-343.04z" fill="#472D22" p-id="7163"></path><path d="M670.72 931.84H76.8c-15.36 0-30.72-5.12-46.08-20.48-10.24-10.24-15.36-25.6-15.36-40.96 20.48-220.16 174.08-389.12 353.28-389.12s332.8 168.96 353.28 389.12c0 15.36-5.12 30.72-15.36 40.96-5.12 10.24-20.48 20.48-35.84 20.48z m-296.96-399.36c-153.6 0-286.72 148.48-307.2 343.04v5.12l5.12 5.12H665.6c5.12 0 5.12 0 5.12-5.12v-5.12c-10.24-199.68-143.36-343.04-296.96-343.04z" fill="#472D22" p-id="7164"></path><path d="M938.9056 972.8c20.48 0 40.96-15.36 35.84-35.84-20.48-225.28-174.08-399.36-358.4-399.36s-337.92 174.08-358.4 399.36c0 20.48 15.36 35.84 35.84 35.84h645.12z" fill="#FFFFFF" p-id="7165"></path><path d="M851.8656 860.16c15.36 0 30.72-15.36 25.6-25.6-15.36-163.84-128-291.84-261.12-291.84s-245.76 122.88-261.12 286.72c0 15.36 10.24 25.6 25.6 25.6h471.04z" fill="#FFCB57" p-id="7166"></path><path d="M406.4256 256c0 76.8 40.96 143.36 107.52 184.32s148.48 35.84 215.04 0 107.52-107.52 107.52-184.32-46.08-148.48-112.64-184.32-148.48-35.84-215.04 0-102.4 107.52-102.4 184.32z" fill="#FFFFFF" p-id="7167"></path><path d="M462.7456 312.32c0 56.32 30.72 107.52 76.8 133.12s107.52 25.6 153.6 0c46.08-25.6 76.8-76.8 76.8-133.12s-25.6-107.52-76.8-133.12-107.52-25.6-153.6 0-76.8 76.8-76.8 133.12z" fill="#FFCB57" p-id="7168"></path><path d="M616.3456 476.16c-133.12 0-240.64-107.52-240.64-235.52s107.52-240.64 240.64-240.64 240.64 107.52 240.64 235.52-107.52 240.64-240.64 240.64z m0-419.84c-102.4 0-184.32 81.92-184.32 184.32s81.92 184.32 184.32 184.32 184.32-81.92 184.32-184.32-81.92-184.32-184.32-184.32z m322.56 957.44h-645.12c-20.48 0-35.84-10.24-46.08-20.48-10.24-15.36-15.36-30.72-15.36-46.08 20.48-240.64 189.44-424.96 389.12-424.96s363.52 184.32 389.12 424.96c0 15.36-5.12 35.84-15.36 46.08-20.48 15.36-35.84 20.48-56.32 20.48z m-322.56-435.2c-168.96 0-312.32 158.72-332.8 373.76v5.12s5.12 5.12 10.24 5.12h645.12c5.12 0 5.12 0 10.24-5.12v-5.12c-20.48-215.04-163.84-373.76-332.8-373.76z" fill="#472D22" p-id="7169"></path><path d="M938.9056 1013.76h-645.12c-20.48 0-35.84-10.24-46.08-20.48-10.24-15.36-15.36-30.72-15.36-46.08 20.48-240.64 189.44-424.96 389.12-424.96s363.52 184.32 389.12 424.96c0 15.36-5.12 35.84-15.36 46.08-20.48 15.36-35.84 20.48-56.32 20.48z m-322.56-435.2c-168.96 0-312.32 158.72-332.8 373.76v5.12s5.12 5.12 10.24 5.12h645.12c5.12 0 5.12 0 10.24-5.12v-5.12c-20.48-215.04-163.84-373.76-332.8-373.76z" fill="#472D22" p-id="7170"></path></svg>